# xmcd
#
# Track frame offsets: 
#        150
#        12267
#        23730
#        33440
#        43410
#        55910
#        68322
#        80192
#        95322
#        105847
#
# Disc length: 1582 seconds
#
# Revision: 2
# Processed by: cddbd v1.4PL0 Copyright (c) Steve Scherf et al.
# Submitted via: ExactAudioCopy v0.90b4
#
DISCID=72062c0a
DTITLE=Various Artist - Country Music Classics, vol. 28 (1965-1970) 
DYEAR=1900
DGENRE=
TTITLE0=Glen Campbell ^ Galveston
TTITLE1=Wynn Stewart ^ It's Such a Pretty World Today
TTITLE2=Loretta Lynn ^ Don't Come Home a-Drinkin' (With Loving on Your
TTITLE2=Mind)
TTITLE3=Buck Owens ^ I've Got a Tiger by the Tail
TTITLE4=Sonny James ^ Running Bear
TTITLE5=Johnny Cash ^ Folsom Prison Blues
TTITLE6=Tammy Wynette ^ I Don't Wanna Play House
TTITLE7=Roy Clark ^ Yesterday When I Was Young
TTITLE8=Roger Miller ^ Engine Engine No. 9
TTITLE9=Jim Reeves ^ Distance Drum
EXTD=
EXTT0=
EXTT1=
EXTT2=
EXTT3=
EXTT4=
EXTT5=
EXTT6=
EXTT7=
EXTT8=
EXTT9=
PLAYORDER=
